<?xml version="1.0" encoding="UTF-8"?>
<svg xmlns="http://www.w3.org/2000/svg" width="1600" height="1600" viewBox="0 0 1600 1600" role="img" aria-label="The 3 spheres of consultant-client-AI co-creation">
  <defs>
    <radialGradient id="aiBall" cx="30%" cy="30%"><stop offset="0%" stop-color="#b784ff"/><stop offset="100%" stop-color="#8a5cf6"/></radialGradient>
    <radialGradient id="coBall" cx="30%" cy="30%"><stop offset="0%" stop-color="#ff77bb"/><stop offset="100%" stop-color="#e53e96"/></radialGradient>
    <radialGradient id="clBall" cx="30%" cy="30%"><stop offset="0%" stop-color="#5fd8ff"/><stop offset="100%" stop-color="#18add0"/></radialGradient>
    <style>
      text { font-family: "IBM Plex Sans", Aptos, Calibri, Arial, sans-serif; }
      .title { font-size: 42px; font-weight: 700; fill: #251d13; }
      .node { font-size: 34px; font-weight: 700; fill: #fff; }
      .small-node { font-size: 29px; font-weight: 700; fill: #fff; }
      .sphere-label { font-size: 28px; font-weight: 800; }
      .legend { font-size: 28px; fill: #61584a; }
      .button { font-size: 23px; font-weight: 800; }
    </style>
  </defs>
  <rect x="38" y="38" width="1524" height="1524" rx="46" fill="#fffdf9"/>
  <text class="title" x="800" y="108" text-anchor="middle"><tspan x="800" dy="0">The 3 spheres of consultant-client-AI</tspan><tspan x="800" dy="48">co-creation</tspan></text>

  <ellipse cx="800" cy="650" rx="620" ry="430" fill="none" stroke="#16bb84" stroke-width="5"/>
  <ellipse cx="800" cy="650" rx="405" ry="255" fill="none" stroke="#8a5cf6" stroke-width="5"/>
  <ellipse cx="800" cy="650" rx="250" ry="135" fill="none" stroke="#f09400" stroke-width="5"/>

  <line x1="800" y1="330" x2="515" y2="560" stroke="#575757" stroke-width="4"/>
  <line x1="800" y1="330" x2="1085" y2="560" stroke="#575757" stroke-width="4"/>
  <line x1="800" y1="330" x2="720" y2="650" stroke="#575757" stroke-width="4"/>
  <line x1="800" y1="330" x2="880" y2="650" stroke="#575757" stroke-width="4"/>
  <line x1="525" y1="580" x2="720" y2="650" stroke="#575757" stroke-width="4"/>
  <line x1="1075" y1="580" x2="880" y2="650" stroke="#575757" stroke-width="4"/>
  <line x1="770" y1="650" x2="830" y2="650" stroke="#575757" stroke-width="5"/>

  <circle cx="800" cy="330" r="50" fill="url(#aiBall)"/>
  <circle cx="510" cy="575" r="39" fill="url(#aiBall)"/>
  <circle cx="1090" cy="575" r="39" fill="url(#aiBall)"/>
  <circle cx="720" cy="650" r="60" fill="url(#coBall)"/>
  <circle cx="880" cy="650" r="60" fill="url(#clBall)"/>

  <text class="node" x="800" y="343" text-anchor="middle">AI</text>
  <text class="small-node" x="510" y="586" text-anchor="middle">AI</text>
  <text class="small-node" x="1090" y="586" text-anchor="middle">AI</text>
  <text class="node" x="720" y="663" text-anchor="middle">CO</text>
  <text class="node" x="880" y="663" text-anchor="middle">CL</text>

  <rect x="680" y="805" width="240" height="76" rx="38" fill="#fffdf9" stroke="#e18a00" stroke-width="2"/>
  <text class="sphere-label" x="800" y="853" text-anchor="middle" fill="#e18a00">S1</text>
  <rect x="680" y="930" width="240" height="76" rx="38" fill="#fffdf9" stroke="#8a5cf6" stroke-width="2"/>
  <text class="sphere-label" x="800" y="978" text-anchor="middle" fill="#8a5cf6">S2</text>
  <rect x="680" y="1065" width="240" height="76" rx="38" fill="#fffdf9" stroke="#14b87d" stroke-width="2"/>
  <text class="sphere-label" x="800" y="1113" text-anchor="middle" fill="#14b87d">S3</text>

  <circle cx="390" cy="1282" r="15" fill="#e53e96"/>
  <text class="legend" x="422" y="1292">CO = Consultant</text>
  <circle cx="730" cy="1282" r="15" fill="#18add0"/>
  <text class="legend" x="762" y="1292">CL = Client</text>
  <circle cx="1040" cy="1282" r="15" fill="#8a5cf6"/>
  <text class="legend" x="1072" y="1292">AI</text>

  <rect x="220" y="1420" width="300" height="66" rx="33" fill="#fffdf9" stroke="#f6a21b" stroke-width="2"/>
  <text class="button" x="370" y="1462" text-anchor="middle" fill="#e18a00">S1 — No AI</text>
  <rect x="590" y="1420" width="340" height="66" rx="33" fill="#fffdf9" stroke="#8a5cf6" stroke-width="2"/>
  <text class="button" x="760" y="1462" text-anchor="middle" fill="#8a5cf6">S2 — Siloed AI use</text>
  <rect x="1000" y="1420" width="420" height="66" rx="33" fill="#fffdf9" stroke="#14b87d" stroke-width="2"/>
  <text class="button" x="1210" y="1462" text-anchor="middle" fill="#14b87d">S3 — Tripartite co-creation</text>
</svg>
